<?xml version="1.0" encoding="UTF-8" standalone="no"?>
<!DOCTYPE svg PUBLIC "-//W3C//DTD SVG 1.1//EN"
 "http://www.w3.org/Graphics/SVG/1.1/DTD/svg11.dtd">
<!-- Generated by graphviz version 2.47.2 (20210527.1257)
 -->
<!-- Title: snakemake_dag Pages: 1 -->
<svg width="3223pt" height="404pt"
 viewBox="0.00 0.00 3223.00 404.00" xmlns="http://www.w3.org/2000/svg" xmlns:xlink="http://www.w3.org/1999/xlink">
<g id="graph0" class="graph" transform="scale(1 1) rotate(0) translate(4 400)">
<title>snakemake_dag</title>
<polygon fill="white" stroke="transparent" points="-4,4 -4,-400 3219,-400 3219,4 -4,4"/>
<!-- 0 -->
<g id="node1" class="node">
<title>0</title>
<path fill="none" stroke="#59d856" stroke-width="2" stroke-dasharray="5,2" d="M1708.5,-36C1708.5,-36 1678.5,-36 1678.5,-36 1672.5,-36 1666.5,-30 1666.5,-24 1666.5,-24 1666.5,-12 1666.5,-12 1666.5,-6 1672.5,0 1678.5,0 1678.5,0 1708.5,0 1708.5,0 1714.5,0 1720.5,-6 1720.5,-12 1720.5,-12 1720.5,-24 1720.5,-24 1720.5,-30 1714.5,-36 1708.5,-36"/>
<text text-anchor="middle" x="1693.5" y="-15.5" font-family="sans" font-size="10.00">all</text>
</g>
<!-- 1 -->
<g id="node2" class="node">
<title>1</title>
<path fill="none" stroke="#56a9d8" stroke-width="2" stroke-dasharray="5,2" d="M158,-180C158,-180 101,-180 101,-180 95,-180 89,-174 89,-168 89,-168 89,-156 89,-156 89,-150 95,-144 101,-144 101,-144 158,-144 158,-144 164,-144 170,-150 170,-156 170,-156 170,-168 170,-168 170,-174 164,-180 158,-180"/>
<text text-anchor="middle" x="129.5" y="-159.5" font-family="sans" font-size="10.00">raw_fastq_qc</text>
</g>
<!-- 1&#45;&gt;0 -->
<g id="edge1" class="edge">
<title>1&#45;&gt;0</title>
<path fill="none" stroke="grey" stroke-width="2" d="M127.75,-143.8C126.73,-123.19 128.65,-89.28 149.5,-72 209.31,-22.43 1425.62,-19.17 1656.01,-19"/>
<polygon fill="grey" stroke="grey" stroke-width="2" points="1656.23,-22.5 1666.23,-19 1656.23,-15.5 1656.23,-22.5"/>
</g>
<!-- 49 -->
<g id="node50" class="node">
<title>49</title>
<path fill="none" stroke="#56d8d8" stroke-width="2" stroke-dasharray="5,2" d="M1524.5,-108C1524.5,-108 1494.5,-108 1494.5,-108 1488.5,-108 1482.5,-102 1482.5,-96 1482.5,-96 1482.5,-84 1482.5,-84 1482.5,-78 1488.5,-72 1494.5,-72 1494.5,-72 1524.5,-72 1524.5,-72 1530.5,-72 1536.5,-78 1536.5,-84 1536.5,-84 1536.5,-96 1536.5,-96 1536.5,-102 1530.5,-108 1524.5,-108"/>
<text text-anchor="middle" x="1509.5" y="-87.5" font-family="sans" font-size="10.00">multiqc</text>
</g>
<!-- 1&#45;&gt;49 -->
<g id="edge82" class="edge">
<title>1&#45;&gt;49</title>
<path fill="none" stroke="grey" stroke-width="2" d="M170.05,-151.85C184.9,-148.85 201.89,-145.82 217.5,-144 470.15,-114.58 1287.82,-95.72 1472.29,-91.77"/>
<polygon fill="grey" stroke="grey" stroke-width="2" points="1472.39,-95.27 1482.31,-91.56 1472.24,-88.27 1472.39,-95.27"/>
</g>
<!-- 2 -->
<g id="node3" class="node">
<title>2</title>
<path fill="none" stroke="#5682d8" stroke-width="2" stroke-dasharray="5,2" d="M133.5,-396C133.5,-396 57.5,-396 57.5,-396 51.5,-396 45.5,-390 45.5,-384 45.5,-384 45.5,-372 45.5,-372 45.5,-366 51.5,-360 57.5,-360 57.5,-360 133.5,-360 133.5,-360 139.5,-360 145.5,-366 145.5,-372 145.5,-372 145.5,-384 145.5,-384 145.5,-390 139.5,-396 133.5,-396"/>
<text text-anchor="middle" x="95.5" y="-381" font-family="sans" font-size="10.00">rename_fastq</text>
<text text-anchor="middle" x="95.5" y="-370" font-family="sans" font-size="10.00">sample: DMSO_1</text>
</g>
<!-- 2&#45;&gt;1 -->
<g id="edge40" class="edge">
<title>2&#45;&gt;1</title>
<path fill="none" stroke="grey" stroke-width="2" d="M101.06,-359.98C104.24,-349.67 108.07,-336.19 110.5,-324 119.79,-277.38 125.09,-222.19 127.62,-190.04"/>
<polygon fill="grey" stroke="grey" stroke-width="2" points="131.11,-190.3 128.38,-180.06 124.13,-189.77 131.11,-190.3"/>
</g>
<!-- 14 -->
<g id="node15" class="node">
<title>14</title>
<path fill="none" stroke="#d8ac56" stroke-width="2" stroke-dasharray="5,2" d="M89.5,-324C89.5,-324 33.5,-324 33.5,-324 27.5,-324 21.5,-318 21.5,-312 21.5,-312 21.5,-300 21.5,-300 21.5,-294 27.5,-288 33.5,-288 33.5,-288 89.5,-288 89.5,-288 95.5,-288 101.5,-294 101.5,-300 101.5,-300 101.5,-312 101.5,-312 101.5,-318 95.5,-324 89.5,-324"/>
<text text-anchor="middle" x="61.5" y="-303.5" font-family="sans" font-size="10.00">trim_adapter</text>
</g>
<!-- 2&#45;&gt;14 -->
<g id="edge47" class="edge">
<title>2&#45;&gt;14</title>
<path fill="none" stroke="grey" stroke-width="2" d="M87.1,-359.7C83.23,-351.73 78.55,-342.1 74.26,-333.26"/>
<polygon fill="grey" stroke="grey" stroke-width="2" points="77.33,-331.57 69.81,-324.1 71.03,-334.63 77.33,-331.57"/>
</g>
<!-- 3 -->
<g id="node4" class="node">
<title>3</title>
<path fill="none" stroke="#56a9d8" stroke-width="2" stroke-dasharray="5,2" d="M515,-180C515,-180 458,-180 458,-180 452,-180 446,-174 446,-168 446,-168 446,-156 446,-156 446,-150 452,-144 458,-144 458,-144 515,-144 515,-144 521,-144 527,-150 527,-156 527,-156 527,-168 527,-168 527,-174 521,-180 515,-180"/>
<text text-anchor="middle" x="486.5" y="-159.5" font-family="sans" font-size="10.00">raw_fastq_qc</text>
</g>
<!-- 3&#45;&gt;0 -->
<g id="edge2" class="edge">
<title>3&#45;&gt;0</title>
<path fill="none" stroke="grey" stroke-width="2" d="M496.38,-143.85C509.7,-122.61 535.56,-87.37 568.5,-72 668.82,-25.17 1472.2,-19.72 1656.09,-19.08"/>
<polygon fill="grey" stroke="grey" stroke-width="2" points="1656.35,-22.58 1666.34,-19.05 1656.33,-15.58 1656.35,-22.58"/>
</g>
<!-- 3&#45;&gt;49 -->
<g id="edge83" class="edge">
<title>3&#45;&gt;49</title>
<path fill="none" stroke="grey" stroke-width="2" d="M527.08,-152.08C542.21,-149.06 559.58,-145.96 575.5,-144 922.04,-101.26 1345.23,-92.93 1471.94,-91.35"/>
<polygon fill="grey" stroke="grey" stroke-width="2" points="1472.3,-94.85 1482.26,-91.23 1472.22,-87.85 1472.3,-94.85"/>
</g>
<!-- 4 -->
<g id="node5" class="node">
<title>4</title>
<path fill="none" stroke="#5682d8" stroke-width="2" stroke-dasharray="5,2" d="M490.5,-396C490.5,-396 414.5,-396 414.5,-396 408.5,-396 402.5,-390 402.5,-384 402.5,-384 402.5,-372 402.5,-372 402.5,-366 408.5,-360 414.5,-360 414.5,-360 490.5,-360 490.5,-360 496.5,-360 502.5,-366 502.5,-372 502.5,-372 502.5,-384 502.5,-384 502.5,-390 496.5,-396 490.5,-396"/>
<text text-anchor="middle" x="452.5" y="-381" font-family="sans" font-size="10.00">rename_fastq</text>
<text text-anchor="middle" x="452.5" y="-370" font-family="sans" font-size="10.00">sample: DMSO_2</text>
</g>
<!-- 4&#45;&gt;3 -->
<g id="edge41" class="edge">
<title>4&#45;&gt;3</title>
<path fill="none" stroke="grey" stroke-width="2" d="M458.06,-359.98C461.24,-349.67 465.07,-336.19 467.5,-324 476.79,-277.38 482.09,-222.19 484.62,-190.04"/>
<polygon fill="grey" stroke="grey" stroke-width="2" points="488.11,-190.3 485.38,-180.06 481.13,-189.77 488.11,-190.3"/>
</g>
<!-- 16 -->
<g id="node17" class="node">
<title>16</title>
<path fill="none" stroke="#d8ac56" stroke-width="2" stroke-dasharray="5,2" d="M446.5,-324C446.5,-324 390.5,-324 390.5,-324 384.5,-324 378.5,-318 378.5,-312 378.5,-312 378.5,-300 378.5,-300 378.5,-294 384.5,-288 390.5,-288 390.5,-288 446.5,-288 446.5,-288 452.5,-288 458.5,-294 458.5,-300 458.5,-300 458.5,-312 458.5,-312 458.5,-318 452.5,-324 446.5,-324"/>
<text text-anchor="middle" x="418.5" y="-303.5" font-family="sans" font-size="10.00">trim_adapter</text>
</g>
<!-- 4&#45;&gt;16 -->
<g id="edge49" class="edge">
<title>4&#45;&gt;16</title>
<path fill="none" stroke="grey" stroke-width="2" d="M444.1,-359.7C440.23,-351.73 435.55,-342.1 431.26,-333.26"/>
<polygon fill="grey" stroke="grey" stroke-width="2" points="434.33,-331.57 426.81,-324.1 428.03,-334.63 434.33,-331.57"/>
</g>
<!-- 5 -->
<g id="node6" class="node">
<title>5</title>
<path fill="none" stroke="#56a9d8" stroke-width="2" stroke-dasharray="5,2" d="M911,-180C911,-180 854,-180 854,-180 848,-180 842,-174 842,-168 842,-168 842,-156 842,-156 842,-150 848,-144 854,-144 854,-144 911,-144 911,-144 917,-144 923,-150 923,-156 923,-156 923,-168 923,-168 923,-174 917,-180 911,-180"/>
<text text-anchor="middle" x="882.5" y="-159.5" font-family="sans" font-size="10.00">raw_fastq_qc</text>
</g>
<!-- 5&#45;&gt;0 -->
<g id="edge3" class="edge">
<title>5&#45;&gt;0</title>
<path fill="none" stroke="grey" stroke-width="2" d="M913.34,-143.84C952.51,-122.94 1022.81,-88.41 1087.5,-72 1196.2,-44.43 1541.59,-26.13 1656.17,-20.69"/>
<polygon fill="grey" stroke="grey" stroke-width="2" points="1656.38,-24.18 1666.21,-20.22 1656.05,-17.19 1656.38,-24.18"/>
</g>
<!-- 5&#45;&gt;49 -->
<g id="edge84" class="edge">
<title>5&#45;&gt;49</title>
<path fill="none" stroke="grey" stroke-width="2" d="M923.21,-146.28C926.33,-145.43 929.45,-144.65 932.5,-144 1132.91,-101.35 1379.68,-93.02 1472.17,-91.39"/>
<polygon fill="grey" stroke="grey" stroke-width="2" points="1472.47,-94.89 1482.42,-91.23 1472.36,-87.89 1472.47,-94.89"/>
</g>
<!-- 6 -->
<g id="node7" class="node">
<title>6</title>
<path fill="none" stroke="#5682d8" stroke-width="2" stroke-dasharray="5,2" d="M886.5,-396C886.5,-396 810.5,-396 810.5,-396 804.5,-396 798.5,-390 798.5,-384 798.5,-384 798.5,-372 798.5,-372 798.5,-366 804.5,-360 810.5,-360 810.5,-360 886.5,-360 886.5,-360 892.5,-360 898.5,-366 898.5,-372 898.5,-372 898.5,-384 898.5,-384 898.5,-390 892.5,-396 886.5,-396"/>
<text text-anchor="middle" x="848.5" y="-381" font-family="sans" font-size="10.00">rename_fastq</text>
<text text-anchor="middle" x="848.5" y="-370" font-family="sans" font-size="10.00">sample: DMSO_3</text>
</g>
<!-- 6&#45;&gt;5 -->
<g id="edge42" class="edge">
<title>6&#45;&gt;5</title>
<path fill="none" stroke="grey" stroke-width="2" d="M854.06,-359.98C857.24,-349.67 861.07,-336.19 863.5,-324 872.79,-277.38 878.09,-222.19 880.62,-190.04"/>
<polygon fill="grey" stroke="grey" stroke-width="2" points="884.11,-190.3 881.38,-180.06 877.13,-189.77 884.11,-190.3"/>
</g>
<!-- 18 -->
<g id="node19" class="node">
<title>18</title>
<path fill="none" stroke="#d8ac56" stroke-width="2" stroke-dasharray="5,2" d="M842.5,-324C842.5,-324 786.5,-324 786.5,-324 780.5,-324 774.5,-318 774.5,-312 774.5,-312 774.5,-300 774.5,-300 774.5,-294 780.5,-288 786.5,-288 786.5,-288 842.5,-288 842.5,-288 848.5,-288 854.5,-294 854.5,-300 854.5,-300 854.5,-312 854.5,-312 854.5,-318 848.5,-324 842.5,-324"/>
<text text-anchor="middle" x="814.5" y="-303.5" font-family="sans" font-size="10.00">trim_adapter</text>
</g>
<!-- 6&#45;&gt;18 -->
<g id="edge51" class="edge">
<title>6&#45;&gt;18</title>
<path fill="none" stroke="grey" stroke-width="2" d="M840.1,-359.7C836.23,-351.73 831.55,-342.1 827.26,-333.26"/>
<polygon fill="grey" stroke="grey" stroke-width="2" points="830.33,-331.57 822.81,-324.1 824.03,-334.63 830.33,-331.57"/>
</g>
<!-- 7 -->
<g id="node8" class="node">
<title>7</title>
<path fill="none" stroke="#56a9d8" stroke-width="2" stroke-dasharray="5,2" d="M1538,-180C1538,-180 1481,-180 1481,-180 1475,-180 1469,-174 1469,-168 1469,-168 1469,-156 1469,-156 1469,-150 1475,-144 1481,-144 1481,-144 1538,-144 1538,-144 1544,-144 1550,-150 1550,-156 1550,-156 1550,-168 1550,-168 1550,-174 1544,-180 1538,-180"/>
<text text-anchor="middle" x="1509.5" y="-159.5" font-family="sans" font-size="10.00">raw_fastq_qc</text>
</g>
<!-- 7&#45;&gt;0 -->
<g id="edge4" class="edge">
<title>7&#45;&gt;0</title>
<path fill="none" stroke="grey" stroke-width="2" d="M1550.23,-159.07C1587.94,-155.03 1642.82,-143.04 1674.5,-108 1689.52,-91.39 1693.73,-65.89 1694.5,-46.43"/>
<polygon fill="grey" stroke="grey" stroke-width="2" points="1698,-46.38 1694.62,-36.34 1691,-46.3 1698,-46.38"/>
</g>
<!-- 7&#45;&gt;49 -->
<g id="edge85" class="edge">
<title>7&#45;&gt;49</title>
<path fill="none" stroke="grey" stroke-width="2" d="M1509.5,-143.7C1509.5,-135.98 1509.5,-126.71 1509.5,-118.11"/>
<polygon fill="grey" stroke="grey" stroke-width="2" points="1513,-118.1 1509.5,-108.1 1506,-118.1 1513,-118.1"/>
</g>
<!-- 8 -->
<g id="node9" class="node">
<title>8</title>
<path fill="none" stroke="#5682d8" stroke-width="2" stroke-dasharray="5,2" d="M1793.5,-396C1793.5,-396 1715.5,-396 1715.5,-396 1709.5,-396 1703.5,-390 1703.5,-384 1703.5,-384 1703.5,-372 1703.5,-372 1703.5,-366 1709.5,-360 1715.5,-360 1715.5,-360 1793.5,-360 1793.5,-360 1799.5,-360 1805.5,-366 1805.5,-372 1805.5,-372 1805.5,-384 1805.5,-384 1805.5,-390 1799.5,-396 1793.5,-396"/>
<text text-anchor="middle" x="1754.5" y="-381" font-family="sans" font-size="10.00">rename_fastq</text>
<text text-anchor="middle" x="1754.5" y="-370" font-family="sans" font-size="10.00">sample: HX531_1</text>
</g>
<!-- 8&#45;&gt;7 -->
<g id="edge43" class="edge">
<title>8&#45;&gt;7</title>
<path fill="none" stroke="grey" stroke-width="2" d="M1734.86,-359.85C1691.41,-321.89 1587.01,-230.7 1537.05,-187.06"/>
<polygon fill="grey" stroke="grey" stroke-width="2" points="1539.06,-184.17 1529.23,-180.23 1534.46,-189.45 1539.06,-184.17"/>
</g>
<!-- 20 -->
<g id="node21" class="node">
<title>20</title>
<path fill="none" stroke="#d8ac56" stroke-width="2" stroke-dasharray="5,2" d="M1864.5,-324C1864.5,-324 1808.5,-324 1808.5,-324 1802.5,-324 1796.5,-318 1796.5,-312 1796.5,-312 1796.5,-300 1796.5,-300 1796.5,-294 1802.5,-288 1808.5,-288 1808.5,-288 1864.5,-288 1864.5,-288 1870.5,-288 1876.5,-294 1876.5,-300 1876.5,-300 1876.5,-312 1876.5,-312 1876.5,-318 1870.5,-324 1864.5,-324"/>
<text text-anchor="middle" x="1836.5" y="-303.5" font-family="sans" font-size="10.00">trim_adapter</text>
</g>
<!-- 8&#45;&gt;20 -->
<g id="edge53" class="edge">
<title>8&#45;&gt;20</title>
<path fill="none" stroke="grey" stroke-width="2" d="M1774.77,-359.7C1785,-350.97 1797.56,-340.24 1808.68,-330.75"/>
<polygon fill="grey" stroke="grey" stroke-width="2" points="1811.13,-333.26 1816.46,-324.1 1806.59,-327.94 1811.13,-333.26"/>
</g>
<!-- 9 -->
<g id="node10" class="node">
<title>9</title>
<path fill="none" stroke="#56a9d8" stroke-width="2" stroke-dasharray="5,2" d="M1951,-180C1951,-180 1894,-180 1894,-180 1888,-180 1882,-174 1882,-168 1882,-168 1882,-156 1882,-156 1882,-150 1888,-144 1894,-144 1894,-144 1951,-144 1951,-144 1957,-144 1963,-150 1963,-156 1963,-156 1963,-168 1963,-168 1963,-174 1957,-180 1951,-180"/>
<text text-anchor="middle" x="1922.5" y="-159.5" font-family="sans" font-size="10.00">raw_fastq_qc</text>
</g>
<!-- 9&#45;&gt;0 -->
<g id="edge5" class="edge">
<title>9&#45;&gt;0</title>
<path fill="none" stroke="grey" stroke-width="2" d="M1894.88,-143.87C1853.39,-118.15 1774.99,-69.53 1729.21,-41.14"/>
<polygon fill="grey" stroke="grey" stroke-width="2" points="1730.85,-38.04 1720.51,-35.75 1727.16,-43.99 1730.85,-38.04"/>
</g>
<!-- 9&#45;&gt;49 -->
<g id="edge86" class="edge">
<title>9&#45;&gt;49</title>
<path fill="none" stroke="grey" stroke-width="2" d="M1881.79,-146.11C1879,-145.33 1876.22,-144.61 1873.5,-144 1731.31,-111.91 1688.17,-146.22 1547.5,-108 1547.05,-107.88 1546.59,-107.75 1546.14,-107.62"/>
<polygon fill="grey" stroke="grey" stroke-width="2" points="1547.12,-104.25 1536.52,-104.3 1544.84,-110.87 1547.12,-104.25"/>
</g>
<!-- 10 -->
<g id="node11" class="node">
<title>10</title>
<path fill="none" stroke="#5682d8" stroke-width="2" stroke-dasharray="5,2" d="M2257.5,-396C2257.5,-396 2179.5,-396 2179.5,-396 2173.5,-396 2167.5,-390 2167.5,-384 2167.5,-384 2167.5,-372 2167.5,-372 2167.5,-366 2173.5,-360 2179.5,-360 2179.5,-360 2257.5,-360 2257.5,-360 2263.5,-360 2269.5,-366 2269.5,-372 2269.5,-372 2269.5,-384 2269.5,-384 2269.5,-390 2263.5,-396 2257.5,-396"/>
<text text-anchor="middle" x="2218.5" y="-381" font-family="sans" font-size="10.00">rename_fastq</text>
<text text-anchor="middle" x="2218.5" y="-370" font-family="sans" font-size="10.00">sample: HX531_2</text>
</g>
<!-- 10&#45;&gt;9 -->
<g id="edge44" class="edge">
<title>10&#45;&gt;9</title>
<path fill="none" stroke="grey" stroke-width="2" d="M2194.78,-359.85C2141.95,-321.66 2014.58,-229.57 1954.67,-186.26"/>
<polygon fill="grey" stroke="grey" stroke-width="2" points="1956.49,-183.26 1946.34,-180.23 1952.39,-188.93 1956.49,-183.26"/>
</g>
<!-- 22 -->
<g id="node23" class="node">
<title>22</title>
<path fill="none" stroke="#d8ac56" stroke-width="2" stroke-dasharray="5,2" d="M2542.5,-324C2542.5,-324 2486.5,-324 2486.5,-324 2480.5,-324 2474.5,-318 2474.5,-312 2474.5,-312 2474.5,-300 2474.5,-300 2474.5,-294 2480.5,-288 2486.5,-288 2486.5,-288 2542.5,-288 2542.5,-288 2548.5,-288 2554.5,-294 2554.5,-300 2554.5,-300 2554.5,-312 2554.5,-312 2554.5,-318 2548.5,-324 2542.5,-324"/>
<text text-anchor="middle" x="2514.5" y="-303.5" font-family="sans" font-size="10.00">trim_adapter</text>
</g>
<!-- 10&#45;&gt;22 -->
<g id="edge55" class="edge">
<title>10&#45;&gt;22</title>
<path fill="none" stroke="grey" stroke-width="2" d="M2269.72,-364.89C2324.28,-351.98 2410.1,-331.69 2464.27,-318.88"/>
<polygon fill="grey" stroke="grey" stroke-width="2" points="2465.41,-322.21 2474.34,-316.5 2463.8,-315.39 2465.41,-322.21"/>
</g>
<!-- 11 -->
<g id="node12" class="node">
<title>11</title>
<path fill="none" stroke="#56a9d8" stroke-width="2" stroke-dasharray="5,2" d="M2775,-180C2775,-180 2718,-180 2718,-180 2712,-180 2706,-174 2706,-168 2706,-168 2706,-156 2706,-156 2706,-150 2712,-144 2718,-144 2718,-144 2775,-144 2775,-144 2781,-144 2787,-150 2787,-156 2787,-156 2787,-168 2787,-168 2787,-174 2781,-180 2775,-180"/>
<text text-anchor="middle" x="2746.5" y="-159.5" font-family="sans" font-size="10.00">raw_fastq_qc</text>
</g>
<!-- 11&#45;&gt;0 -->
<g id="edge6" class="edge">
<title>11&#45;&gt;0</title>
<path fill="none" stroke="grey" stroke-width="2" d="M2744.96,-143.92C2742.07,-123.1 2733.85,-88.64 2710.5,-72 2629.46,-14.24 1904.24,-17.08 1730.69,-18.61"/>
<polygon fill="grey" stroke="grey" stroke-width="2" points="1730.49,-15.11 1720.53,-18.7 1730.56,-22.11 1730.49,-15.11"/>
</g>
<!-- 11&#45;&gt;49 -->
<g id="edge87" class="edge">
<title>11&#45;&gt;49</title>
<path fill="none" stroke="grey" stroke-width="2" d="M2705.96,-151.78C2691.11,-148.77 2674.12,-145.75 2658.5,-144 2413.02,-116.49 1788.21,-163.48 1547.5,-108 1547.17,-107.92 1546.84,-107.84 1546.51,-107.76"/>
<polygon fill="grey" stroke="grey" stroke-width="2" points="1547.47,-104.4 1536.88,-104.73 1545.36,-111.07 1547.47,-104.4"/>
</g>
<!-- 12 -->
<g id="node13" class="node">
<title>12</title>
<path fill="none" stroke="#5682d8" stroke-width="2" stroke-dasharray="5,2" d="M2862.5,-396C2862.5,-396 2784.5,-396 2784.5,-396 2778.5,-396 2772.5,-390 2772.5,-384 2772.5,-384 2772.5,-372 2772.5,-372 2772.5,-366 2778.5,-360 2784.5,-360 2784.5,-360 2862.5,-360 2862.5,-360 2868.5,-360 2874.5,-366 2874.5,-372 2874.5,-372 2874.5,-384 2874.5,-384 2874.5,-390 2868.5,-396 2862.5,-396"/>
<text text-anchor="middle" x="2823.5" y="-381" font-family="sans" font-size="10.00">rename_fastq</text>
<text text-anchor="middle" x="2823.5" y="-370" font-family="sans" font-size="10.00">sample: HX531_3</text>
</g>
<!-- 12&#45;&gt;11 -->
<g id="edge45" class="edge">
<title>12&#45;&gt;11</title>
<path fill="none" stroke="grey" stroke-width="2" d="M2817.33,-359.85C2803.95,-322.68 2772.2,-234.44 2756.15,-189.82"/>
<polygon fill="grey" stroke="grey" stroke-width="2" points="2759.38,-188.46 2752.7,-180.23 2752.79,-190.83 2759.38,-188.46"/>
</g>
<!-- 24 -->
<g id="node25" class="node">
<title>24</title>
<path fill="none" stroke="#d8ac56" stroke-width="2" stroke-dasharray="5,2" d="M2899.5,-324C2899.5,-324 2843.5,-324 2843.5,-324 2837.5,-324 2831.5,-318 2831.5,-312 2831.5,-312 2831.5,-300 2831.5,-300 2831.5,-294 2837.5,-288 2843.5,-288 2843.5,-288 2899.5,-288 2899.5,-288 2905.5,-288 2911.5,-294 2911.5,-300 2911.5,-300 2911.5,-312 2911.5,-312 2911.5,-318 2905.5,-324 2899.5,-324"/>
<text text-anchor="middle" x="2871.5" y="-303.5" font-family="sans" font-size="10.00">trim_adapter</text>
</g>
<!-- 12&#45;&gt;24 -->
<g id="edge57" class="edge">
<title>12&#45;&gt;24</title>
<path fill="none" stroke="grey" stroke-width="2" d="M2835.37,-359.7C2841,-351.47 2847.85,-341.48 2854.07,-332.42"/>
<polygon fill="grey" stroke="grey" stroke-width="2" points="2857,-334.33 2859.77,-324.1 2851.23,-330.37 2857,-334.33"/>
</g>
<!-- 13 -->
<g id="node14" class="node">
<title>13</title>
<path fill="none" stroke="#d88556" stroke-width="2" stroke-dasharray="5,2" d="M71,-252C71,-252 12,-252 12,-252 6,-252 0,-246 0,-240 0,-240 0,-228 0,-228 0,-222 6,-216 12,-216 12,-216 71,-216 71,-216 77,-216 83,-222 83,-228 83,-228 83,-240 83,-240 83,-246 77,-252 71,-252"/>
<text text-anchor="middle" x="41.5" y="-231.5" font-family="sans" font-size="10.00">trim_fastq_qc</text>
</g>
<!-- 13&#45;&gt;0 -->
<g id="edge7" class="edge">
<title>13&#45;&gt;0</title>
<path fill="none" stroke="grey" stroke-width="2" d="M40.71,-215.85C40.19,-181.97 44.47,-106.74 89.5,-72 153.53,-22.61 1420.82,-19.21 1656.09,-19.01"/>
<polygon fill="grey" stroke="grey" stroke-width="2" points="1656.2,-22.51 1666.2,-19 1656.2,-15.51 1656.2,-22.51"/>
</g>
<!-- 14&#45;&gt;13 -->
<g id="edge46" class="edge">
<title>14&#45;&gt;13</title>
<path fill="none" stroke="grey" stroke-width="2" d="M56.56,-287.7C54.33,-279.9 51.65,-270.51 49.17,-261.83"/>
<polygon fill="grey" stroke="grey" stroke-width="2" points="52.5,-260.76 46.39,-252.1 45.77,-262.68 52.5,-260.76"/>
</g>
<!-- 25 -->
<g id="node26" class="node">
<title>25</title>
<path fill="none" stroke="#afd856" stroke-width="2" stroke-dasharray="5,2" d="M342,-252C342,-252 301,-252 301,-252 295,-252 289,-246 289,-240 289,-240 289,-228 289,-228 289,-222 295,-216 301,-216 301,-216 342,-216 342,-216 348,-216 354,-222 354,-228 354,-228 354,-240 354,-240 354,-246 348,-252 342,-252"/>
<text text-anchor="middle" x="321.5" y="-231.5" font-family="sans" font-size="10.00">star_align</text>
</g>
<!-- 14&#45;&gt;25 -->
<g id="edge58" class="edge">
<title>14&#45;&gt;25</title>
<path fill="none" stroke="grey" stroke-width="2" d="M101.56,-294.22C149.66,-281.26 230.01,-259.63 279.12,-246.41"/>
<polygon fill="grey" stroke="grey" stroke-width="2" points="280.06,-249.78 288.81,-243.8 278.24,-243.02 280.06,-249.78"/>
</g>
<!-- 15 -->
<g id="node16" class="node">
<title>15</title>
<path fill="none" stroke="#d88556" stroke-width="2" stroke-dasharray="5,2" d="M230,-108C230,-108 171,-108 171,-108 165,-108 159,-102 159,-96 159,-96 159,-84 159,-84 159,-78 165,-72 171,-72 171,-72 230,-72 230,-72 236,-72 242,-78 242,-84 242,-84 242,-96 242,-96 242,-102 236,-108 230,-108"/>
<text text-anchor="middle" x="200.5" y="-87.5" font-family="sans" font-size="10.00">trim_fastq_qc</text>
</g>
<!-- 15&#45;&gt;0 -->
<g id="edge8" class="edge">
<title>15&#45;&gt;0</title>
<path fill="none" stroke="grey" stroke-width="2" d="M242.24,-75.24C247.34,-73.95 252.51,-72.82 257.5,-72 538.33,-25.71 1459.37,-19.83 1656.25,-19.1"/>
<polygon fill="grey" stroke="grey" stroke-width="2" points="1656.39,-22.6 1666.38,-19.07 1656.36,-15.6 1656.39,-22.6"/>
</g>
<!-- 16&#45;&gt;15 -->
<g id="edge48" class="edge">
<title>16&#45;&gt;15</title>
<path fill="none" stroke="grey" stroke-width="2" d="M378.21,-295.37C349,-287.07 309.52,-273.07 279.5,-252 244.94,-227.74 235.86,-218.03 217.5,-180 208.12,-160.58 203.91,-136.44 202.03,-118.2"/>
<polygon fill="grey" stroke="grey" stroke-width="2" points="205.51,-117.88 201.16,-108.22 198.54,-118.49 205.51,-117.88"/>
</g>
<!-- 26 -->
<g id="node27" class="node">
<title>26</title>
<path fill="none" stroke="#afd856" stroke-width="2" stroke-dasharray="5,2" d="M699,-252C699,-252 658,-252 658,-252 652,-252 646,-246 646,-240 646,-240 646,-228 646,-228 646,-222 652,-216 658,-216 658,-216 699,-216 699,-216 705,-216 711,-222 711,-228 711,-228 711,-240 711,-240 711,-246 705,-252 699,-252"/>
<text text-anchor="middle" x="678.5" y="-231.5" font-family="sans" font-size="10.00">star_align</text>
</g>
<!-- 16&#45;&gt;26 -->
<g id="edge59" class="edge">
<title>16&#45;&gt;26</title>
<path fill="none" stroke="grey" stroke-width="2" d="M458.56,-294.22C506.66,-281.26 587.01,-259.63 636.12,-246.41"/>
<polygon fill="grey" stroke="grey" stroke-width="2" points="637.06,-249.78 645.81,-243.8 635.24,-243.02 637.06,-249.78"/>
</g>
<!-- 17 -->
<g id="node18" class="node">
<title>17</title>
<path fill="none" stroke="#d88556" stroke-width="2" stroke-dasharray="5,2" d="M648,-108C648,-108 589,-108 589,-108 583,-108 577,-102 577,-96 577,-96 577,-84 577,-84 577,-78 583,-72 589,-72 589,-72 648,-72 648,-72 654,-72 660,-78 660,-84 660,-84 660,-96 660,-96 660,-102 654,-108 648,-108"/>
<text text-anchor="middle" x="618.5" y="-87.5" font-family="sans" font-size="10.00">trim_fastq_qc</text>
</g>
<!-- 17&#45;&gt;0 -->
<g id="edge9" class="edge">
<title>17&#45;&gt;0</title>
<path fill="none" stroke="grey" stroke-width="2" d="M660.17,-79.31C673.61,-76.53 688.63,-73.77 702.5,-72 1071.98,-24.99 1524.1,-19.58 1655.83,-19.04"/>
<polygon fill="grey" stroke="grey" stroke-width="2" points="1656.19,-22.53 1666.18,-19 1656.16,-15.53 1656.19,-22.53"/>
</g>
<!-- 18&#45;&gt;17 -->
<g id="edge50" class="edge">
<title>18&#45;&gt;17</title>
<path fill="none" stroke="grey" stroke-width="2" d="M774.16,-299.58C736.39,-293.04 679.62,-279.32 637.5,-252 602.07,-229.02 590.2,-219.59 575.5,-180 569.93,-165 570.15,-159.08 575.5,-144 579.16,-133.68 585.79,-123.9 592.76,-115.61"/>
<polygon fill="grey" stroke="grey" stroke-width="2" points="595.37,-117.94 599.46,-108.16 590.17,-113.26 595.37,-117.94"/>
</g>
<!-- 27 -->
<g id="node28" class="node">
<title>27</title>
<path fill="none" stroke="#afd856" stroke-width="2" stroke-dasharray="5,2" d="M1162,-252C1162,-252 1121,-252 1121,-252 1115,-252 1109,-246 1109,-240 1109,-240 1109,-228 1109,-228 1109,-222 1115,-216 1121,-216 1121,-216 1162,-216 1162,-216 1168,-216 1174,-222 1174,-228 1174,-228 1174,-240 1174,-240 1174,-246 1168,-252 1162,-252"/>
<text text-anchor="middle" x="1141.5" y="-231.5" font-family="sans" font-size="10.00">star_align</text>
</g>
<!-- 18&#45;&gt;27 -->
<g id="edge60" class="edge">
<title>18&#45;&gt;27</title>
<path fill="none" stroke="grey" stroke-width="2" d="M854.6,-296.42C916.63,-283.14 1035.33,-257.73 1098.87,-244.13"/>
<polygon fill="grey" stroke="grey" stroke-width="2" points="1099.9,-247.48 1108.95,-241.97 1098.44,-240.64 1099.9,-247.48"/>
</g>
<!-- 19 -->
<g id="node20" class="node">
<title>19</title>
<path fill="none" stroke="#d88556" stroke-width="2" stroke-dasharray="5,2" d="M2689,-108C2689,-108 2630,-108 2630,-108 2624,-108 2618,-102 2618,-96 2618,-96 2618,-84 2618,-84 2618,-78 2624,-72 2630,-72 2630,-72 2689,-72 2689,-72 2695,-72 2701,-78 2701,-84 2701,-84 2701,-96 2701,-96 2701,-102 2695,-108 2689,-108"/>
<text text-anchor="middle" x="2659.5" y="-87.5" font-family="sans" font-size="10.00">trim_fastq_qc</text>
</g>
<!-- 19&#45;&gt;0 -->
<g id="edge10" class="edge">
<title>19&#45;&gt;0</title>
<path fill="none" stroke="grey" stroke-width="2" d="M2617.86,-77.88C2607.97,-75.6 2597.41,-73.45 2587.5,-72 2257.9,-23.69 1853.79,-19.12 1730.77,-18.91"/>
<polygon fill="grey" stroke="grey" stroke-width="2" points="1730.74,-15.41 1720.74,-18.91 1730.73,-22.41 1730.74,-15.41"/>
</g>
<!-- 20&#45;&gt;19 -->
<g id="edge52" class="edge">
<title>20&#45;&gt;19</title>
<path fill="none" stroke="grey" stroke-width="2" d="M1876.69,-304.85C2009.01,-303.93 2429.81,-297.4 2556.5,-252 2608.74,-233.28 2632.69,-229.12 2658.5,-180 2668.41,-161.13 2667.93,-136.76 2665.38,-118.29"/>
<polygon fill="grey" stroke="grey" stroke-width="2" points="2668.8,-117.48 2663.71,-108.19 2661.89,-118.62 2668.8,-117.48"/>
</g>
<!-- 28 -->
<g id="node29" class="node">
<title>28</title>
<path fill="none" stroke="#afd856" stroke-width="2" stroke-dasharray="5,2" d="M1857,-252C1857,-252 1816,-252 1816,-252 1810,-252 1804,-246 1804,-240 1804,-240 1804,-228 1804,-228 1804,-222 1810,-216 1816,-216 1816,-216 1857,-216 1857,-216 1863,-216 1869,-222 1869,-228 1869,-228 1869,-240 1869,-240 1869,-246 1863,-252 1857,-252"/>
<text text-anchor="middle" x="1836.5" y="-231.5" font-family="sans" font-size="10.00">star_align</text>
</g>
<!-- 20&#45;&gt;28 -->
<g id="edge61" class="edge">
<title>20&#45;&gt;28</title>
<path fill="none" stroke="grey" stroke-width="2" d="M1836.5,-287.7C1836.5,-279.98 1836.5,-270.71 1836.5,-262.11"/>
<polygon fill="grey" stroke="grey" stroke-width="2" points="1840,-262.1 1836.5,-252.1 1833,-262.1 1840,-262.1"/>
</g>
<!-- 21 -->
<g id="node22" class="node">
<title>21</title>
<path fill="none" stroke="#d88556" stroke-width="2" stroke-dasharray="5,2" d="M3102,-108C3102,-108 3043,-108 3043,-108 3037,-108 3031,-102 3031,-96 3031,-96 3031,-84 3031,-84 3031,-78 3037,-72 3043,-72 3043,-72 3102,-72 3102,-72 3108,-72 3114,-78 3114,-84 3114,-84 3114,-96 3114,-96 3114,-102 3108,-108 3102,-108"/>
<text text-anchor="middle" x="3072.5" y="-87.5" font-family="sans" font-size="10.00">trim_fastq_qc</text>
</g>
<!-- 21&#45;&gt;0 -->
<g id="edge11" class="edge">
<title>21&#45;&gt;0</title>
<path fill="none" stroke="grey" stroke-width="2" d="M3030.88,-75.1C3026.08,-73.87 3021.21,-72.8 3016.5,-72 2759.28,-28.54 1918.21,-20.48 1730.76,-19.21"/>
<polygon fill="grey" stroke="grey" stroke-width="2" points="1730.61,-15.71 1720.59,-19.15 1730.57,-22.71 1730.61,-15.71"/>
</g>
<!-- 22&#45;&gt;21 -->
<g id="edge54" class="edge">
<title>22&#45;&gt;21</title>
<path fill="none" stroke="grey" stroke-width="2" d="M2554.6,-304.37C2627.7,-302.19 2786.77,-292.74 2913.5,-252 2978.24,-231.19 3006.16,-233.21 3048.5,-180 3062.48,-162.44 3068.34,-137.4 3070.79,-118.36"/>
<polygon fill="grey" stroke="grey" stroke-width="2" points="3074.29,-118.52 3071.85,-108.21 3067.33,-117.79 3074.29,-118.52"/>
</g>
<!-- 29 -->
<g id="node30" class="node">
<title>29</title>
<path fill="none" stroke="#afd856" stroke-width="2" stroke-dasharray="5,2" d="M2535,-252C2535,-252 2494,-252 2494,-252 2488,-252 2482,-246 2482,-240 2482,-240 2482,-228 2482,-228 2482,-222 2488,-216 2494,-216 2494,-216 2535,-216 2535,-216 2541,-216 2547,-222 2547,-228 2547,-228 2547,-240 2547,-240 2547,-246 2541,-252 2535,-252"/>
<text text-anchor="middle" x="2514.5" y="-231.5" font-family="sans" font-size="10.00">star_align</text>
</g>
<!-- 22&#45;&gt;29 -->
<g id="edge62" class="edge">
<title>22&#45;&gt;29</title>
<path fill="none" stroke="grey" stroke-width="2" d="M2514.5,-287.7C2514.5,-279.98 2514.5,-270.71 2514.5,-262.11"/>
<polygon fill="grey" stroke="grey" stroke-width="2" points="2518,-262.1 2514.5,-252.1 2511,-262.1 2518,-262.1"/>
</g>
<!-- 23 -->
<g id="node24" class="node">
<title>23</title>
<path fill="none" stroke="#d88556" stroke-width="2" stroke-dasharray="5,2" d="M3203,-108C3203,-108 3144,-108 3144,-108 3138,-108 3132,-102 3132,-96 3132,-96 3132,-84 3132,-84 3132,-78 3138,-72 3144,-72 3144,-72 3203,-72 3203,-72 3209,-72 3215,-78 3215,-84 3215,-84 3215,-96 3215,-96 3215,-102 3209,-108 3203,-108"/>
<text text-anchor="middle" x="3173.5" y="-87.5" font-family="sans" font-size="10.00">trim_fastq_qc</text>
</g>
<!-- 23&#45;&gt;0 -->
<g id="edge12" class="edge">
<title>23&#45;&gt;0</title>
<path fill="none" stroke="grey" stroke-width="2" d="M3132,-73.88C3129.15,-73.16 3126.3,-72.52 3123.5,-72 2844.77,-20.59 1926.86,-18.72 1730.63,-18.92"/>
<polygon fill="grey" stroke="grey" stroke-width="2" points="1730.53,-15.42 1720.54,-18.93 1730.54,-22.42 1730.53,-15.42"/>
</g>
<!-- 24&#45;&gt;23 -->
<g id="edge56" class="edge">
<title>24&#45;&gt;23</title>
<path fill="none" stroke="grey" stroke-width="2" d="M2911.73,-304.55C2958.33,-302.06 3035.27,-291.64 3086.5,-252 3130.87,-217.67 3155.42,-154.11 3166.38,-117.97"/>
<polygon fill="grey" stroke="grey" stroke-width="2" points="3169.82,-118.7 3169.24,-108.12 3163.09,-116.75 3169.82,-118.7"/>
</g>
<!-- 30 -->
<g id="node31" class="node">
<title>30</title>
<path fill="none" stroke="#afd856" stroke-width="2" stroke-dasharray="5,2" d="M2892,-252C2892,-252 2851,-252 2851,-252 2845,-252 2839,-246 2839,-240 2839,-240 2839,-228 2839,-228 2839,-222 2845,-216 2851,-216 2851,-216 2892,-216 2892,-216 2898,-216 2904,-222 2904,-228 2904,-228 2904,-240 2904,-240 2904,-246 2898,-252 2892,-252"/>
<text text-anchor="middle" x="2871.5" y="-231.5" font-family="sans" font-size="10.00">star_align</text>
</g>
<!-- 24&#45;&gt;30 -->
<g id="edge63" class="edge">
<title>24&#45;&gt;30</title>
<path fill="none" stroke="grey" stroke-width="2" d="M2871.5,-287.7C2871.5,-279.98 2871.5,-270.71 2871.5,-262.11"/>
<polygon fill="grey" stroke="grey" stroke-width="2" points="2875,-262.1 2871.5,-252.1 2868,-262.1 2875,-262.1"/>
</g>
<!-- 25&#45;&gt;0 -->
<g id="edge13" class="edge">
<title>25&#45;&gt;0</title>
<path fill="none" stroke="grey" stroke-width="2" d="M288.54,-230.75C228.57,-225.9 105.39,-212.17 79.5,-180 47.8,-140.6 122.2,-74.42 126.5,-72 195.22,-33.28 1424.45,-21.22 1656.04,-19.29"/>
<polygon fill="grey" stroke="grey" stroke-width="2" points="1656.34,-22.79 1666.31,-19.21 1656.28,-15.79 1656.34,-22.79"/>
</g>
<!-- 31 -->
<g id="node32" class="node">
<title>31</title>
<path fill="none" stroke="#d85656" stroke-width="2" stroke-dasharray="5,2" d="M270,-180C270,-180 239,-180 239,-180 233,-180 227,-174 227,-168 227,-168 227,-156 227,-156 227,-150 233,-144 239,-144 239,-144 270,-144 270,-144 276,-144 282,-150 282,-156 282,-156 282,-168 282,-168 282,-174 276,-180 270,-180"/>
<text text-anchor="middle" x="254.5" y="-159.5" font-family="sans" font-size="10.00">bam_qc</text>
</g>
<!-- 25&#45;&gt;31 -->
<g id="edge64" class="edge">
<title>25&#45;&gt;31</title>
<path fill="none" stroke="grey" stroke-width="2" d="M304.94,-215.7C296.82,-207.22 286.91,-196.86 278.03,-187.58"/>
<polygon fill="grey" stroke="grey" stroke-width="2" points="280.31,-184.91 270.87,-180.1 275.26,-189.75 280.31,-184.91"/>
</g>
<!-- 37 -->
<g id="node38" class="node">
<title>37</title>
<path fill="none" stroke="#56d882" stroke-width="2" stroke-dasharray="5,2" d="M416,-180C416,-180 351,-180 351,-180 345,-180 339,-174 339,-168 339,-168 339,-156 339,-156 339,-150 345,-144 351,-144 351,-144 416,-144 416,-144 422,-144 428,-150 428,-156 428,-156 428,-168 428,-168 428,-174 422,-180 416,-180"/>
<text text-anchor="middle" x="383.5" y="-159.5" font-family="sans" font-size="10.00">cufflinks_fpkm</text>
</g>
<!-- 25&#45;&gt;37 -->
<g id="edge70" class="edge">
<title>25&#45;&gt;37</title>
<path fill="none" stroke="grey" stroke-width="2" d="M336.83,-215.7C344.26,-207.3 353.32,-197.07 361.48,-187.86"/>
<polygon fill="grey" stroke="grey" stroke-width="2" points="364.34,-189.91 368.35,-180.1 359.1,-185.27 364.34,-189.91"/>
</g>
<!-- 43 -->
<g id="node44" class="node">
<title>43</title>
<path fill="none" stroke="#56d8a9" stroke-width="2" stroke-dasharray="5,2" d="M1110.5,-180C1110.5,-180 1026.5,-180 1026.5,-180 1020.5,-180 1014.5,-174 1014.5,-168 1014.5,-168 1014.5,-156 1014.5,-156 1014.5,-150 1020.5,-144 1026.5,-144 1026.5,-144 1110.5,-144 1110.5,-144 1116.5,-144 1122.5,-150 1122.5,-156 1122.5,-156 1122.5,-168 1122.5,-168 1122.5,-174 1116.5,-180 1110.5,-180"/>
<text text-anchor="middle" x="1068.5" y="-159.5" font-family="sans" font-size="10.00">htseq_count_reads</text>
</g>
<!-- 25&#45;&gt;43 -->
<g id="edge76" class="edge">
<title>25&#45;&gt;43</title>
<path fill="none" stroke="grey" stroke-width="2" d="M354.19,-231.28C469.67,-225.07 858.86,-203.06 1004.3,-179.96"/>
<polygon fill="grey" stroke="grey" stroke-width="2" points="1005.05,-183.39 1014.35,-178.3 1003.91,-176.48 1005.05,-183.39"/>
</g>
<!-- 25&#45;&gt;49 -->
<g id="edge88" class="edge">
<title>25&#45;&gt;49</title>
<path fill="none" stroke="grey" stroke-width="2" d="M354.46,-233.78C415.62,-233.95 549.48,-228.21 648.5,-180 669.71,-169.67 665.82,-153.29 687.5,-144 760.18,-112.85 1320.93,-95.96 1472.07,-91.95"/>
<polygon fill="grey" stroke="grey" stroke-width="2" points="1472.33,-95.44 1482.23,-91.68 1472.15,-88.44 1472.33,-95.44"/>
</g>
<!-- 26&#45;&gt;0 -->
<g id="edge14" class="edge">
<title>26&#45;&gt;0</title>
<path fill="none" stroke="grey" stroke-width="2" d="M645.91,-233.19C567.19,-232.9 370.2,-227.35 329.5,-180 319.07,-167.87 321.59,-157.91 329.5,-144 360.43,-89.6 390.53,-89.88 450.5,-72 568.46,-36.84 1461.81,-22.27 1656.23,-19.5"/>
<polygon fill="grey" stroke="grey" stroke-width="2" points="1656.54,-23 1666.49,-19.36 1656.44,-16 1656.54,-23"/>
</g>
<!-- 32 -->
<g id="node33" class="node">
<title>32</title>
<path fill="none" stroke="#d85656" stroke-width="2" stroke-dasharray="5,2" d="M627,-180C627,-180 596,-180 596,-180 590,-180 584,-174 584,-168 584,-168 584,-156 584,-156 584,-150 590,-144 596,-144 596,-144 627,-144 627,-144 633,-144 639,-150 639,-156 639,-156 639,-168 639,-168 639,-174 633,-180 627,-180"/>
<text text-anchor="middle" x="611.5" y="-159.5" font-family="sans" font-size="10.00">bam_qc</text>
</g>
<!-- 26&#45;&gt;32 -->
<g id="edge65" class="edge">
<title>26&#45;&gt;32</title>
<path fill="none" stroke="grey" stroke-width="2" d="M661.94,-215.7C653.82,-207.22 643.91,-196.86 635.03,-187.58"/>
<polygon fill="grey" stroke="grey" stroke-width="2" points="637.31,-184.91 627.87,-180.1 632.26,-189.75 637.31,-184.91"/>
</g>
<!-- 38 -->
<g id="node39" class="node">
<title>38</title>
<path fill="none" stroke="#56d882" stroke-width="2" stroke-dasharray="5,2" d="M773,-180C773,-180 708,-180 708,-180 702,-180 696,-174 696,-168 696,-168 696,-156 696,-156 696,-150 702,-144 708,-144 708,-144 773,-144 773,-144 779,-144 785,-150 785,-156 785,-156 785,-168 785,-168 785,-174 779,-180 773,-180"/>
<text text-anchor="middle" x="740.5" y="-159.5" font-family="sans" font-size="10.00">cufflinks_fpkm</text>
</g>
<!-- 26&#45;&gt;38 -->
<g id="edge71" class="edge">
<title>26&#45;&gt;38</title>
<path fill="none" stroke="grey" stroke-width="2" d="M693.83,-215.7C701.26,-207.3 710.32,-197.07 718.48,-187.86"/>
<polygon fill="grey" stroke="grey" stroke-width="2" points="721.34,-189.91 725.35,-180.1 716.1,-185.27 721.34,-189.91"/>
</g>
<!-- 44 -->
<g id="node45" class="node">
<title>44</title>
<path fill="none" stroke="#56d8a9" stroke-width="2" stroke-dasharray="5,2" d="M1236.5,-180C1236.5,-180 1152.5,-180 1152.5,-180 1146.5,-180 1140.5,-174 1140.5,-168 1140.5,-168 1140.5,-156 1140.5,-156 1140.5,-150 1146.5,-144 1152.5,-144 1152.5,-144 1236.5,-144 1236.5,-144 1242.5,-144 1248.5,-150 1248.5,-156 1248.5,-156 1248.5,-168 1248.5,-168 1248.5,-174 1242.5,-180 1236.5,-180"/>
<text text-anchor="middle" x="1194.5" y="-159.5" font-family="sans" font-size="10.00">htseq_count_reads</text>
</g>
<!-- 26&#45;&gt;44 -->
<g id="edge77" class="edge">
<title>26&#45;&gt;44</title>
<path fill="none" stroke="grey" stroke-width="2" d="M711.16,-230.84C784.49,-225.62 967.87,-210.62 1130.16,-180.1"/>
<polygon fill="grey" stroke="grey" stroke-width="2" points="1131.15,-183.47 1140.32,-178.16 1129.84,-176.6 1131.15,-183.47"/>
</g>
<!-- 26&#45;&gt;49 -->
<g id="edge89" class="edge">
<title>26&#45;&gt;49</title>
<path fill="none" stroke="grey" stroke-width="2" d="M711.19,-233.06C818.76,-232.8 1160.38,-228.12 1257.5,-180 1276.95,-170.36 1271.81,-155.03 1290.5,-144 1321.04,-125.98 1418.18,-106.9 1472.26,-97.3"/>
<polygon fill="grey" stroke="grey" stroke-width="2" points="1472.9,-100.74 1482.15,-95.56 1471.69,-93.84 1472.9,-100.74"/>
</g>
<!-- 27&#45;&gt;0 -->
<g id="edge15" class="edge">
<title>27&#45;&gt;0</title>
<path fill="none" stroke="grey" stroke-width="2" d="M1108.75,-232.46C1036.78,-230.5 868.46,-221.49 833.5,-180 823.19,-167.76 824.94,-157.52 833.5,-144 873.47,-80.83 913.23,-91.11 985.5,-72 1114.15,-37.98 1529.48,-23.64 1656.35,-19.99"/>
<polygon fill="grey" stroke="grey" stroke-width="2" points="1656.45,-23.49 1666.35,-19.71 1656.26,-16.49 1656.45,-23.49"/>
</g>
<!-- 33 -->
<g id="node34" class="node">
<title>33</title>
<path fill="none" stroke="#d85656" stroke-width="2" stroke-dasharray="5,2" d="M984,-180C984,-180 953,-180 953,-180 947,-180 941,-174 941,-168 941,-168 941,-156 941,-156 941,-150 947,-144 953,-144 953,-144 984,-144 984,-144 990,-144 996,-150 996,-156 996,-156 996,-168 996,-168 996,-174 990,-180 984,-180"/>
<text text-anchor="middle" x="968.5" y="-159.5" font-family="sans" font-size="10.00">bam_qc</text>
</g>
<!-- 27&#45;&gt;33 -->
<g id="edge66" class="edge">
<title>27&#45;&gt;33</title>
<path fill="none" stroke="grey" stroke-width="2" d="M1108.86,-220.9C1081.17,-210.49 1040.49,-194.84 1005.5,-180 1005.41,-179.96 1005.31,-179.92 1005.22,-179.88"/>
<polygon fill="grey" stroke="grey" stroke-width="2" points="1006.87,-176.78 996.3,-175.99 1004.07,-183.2 1006.87,-176.78"/>
</g>
<!-- 39 -->
<g id="node40" class="node">
<title>39</title>
<path fill="none" stroke="#56d882" stroke-width="2" stroke-dasharray="5,2" d="M2311,-180C2311,-180 2246,-180 2246,-180 2240,-180 2234,-174 2234,-168 2234,-168 2234,-156 2234,-156 2234,-150 2240,-144 2246,-144 2246,-144 2311,-144 2311,-144 2317,-144 2323,-150 2323,-156 2323,-156 2323,-168 2323,-168 2323,-174 2317,-180 2311,-180"/>
<text text-anchor="middle" x="2278.5" y="-159.5" font-family="sans" font-size="10.00">cufflinks_fpkm</text>
</g>
<!-- 27&#45;&gt;39 -->
<g id="edge72" class="edge">
<title>27&#45;&gt;39</title>
<path fill="none" stroke="grey" stroke-width="2" d="M1174.01,-232.53C1329.07,-230.12 1995.19,-217.81 2224.02,-179.71"/>
<polygon fill="grey" stroke="grey" stroke-width="2" points="2224.68,-183.15 2233.93,-178 2223.48,-176.26 2224.68,-183.15"/>
</g>
<!-- 45 -->
<g id="node46" class="node">
<title>45</title>
<path fill="none" stroke="#56d8a9" stroke-width="2" stroke-dasharray="5,2" d="M1438.5,-180C1438.5,-180 1354.5,-180 1354.5,-180 1348.5,-180 1342.5,-174 1342.5,-168 1342.5,-168 1342.5,-156 1342.5,-156 1342.5,-150 1348.5,-144 1354.5,-144 1354.5,-144 1438.5,-144 1438.5,-144 1444.5,-144 1450.5,-150 1450.5,-156 1450.5,-156 1450.5,-168 1450.5,-168 1450.5,-174 1444.5,-180 1438.5,-180"/>
<text text-anchor="middle" x="1396.5" y="-159.5" font-family="sans" font-size="10.00">htseq_count_reads</text>
</g>
<!-- 27&#45;&gt;45 -->
<g id="edge78" class="edge">
<title>27&#45;&gt;45</title>
<path fill="none" stroke="grey" stroke-width="2" d="M1174.05,-224.06C1213.83,-213.14 1282.05,-194.42 1332.48,-180.57"/>
<polygon fill="grey" stroke="grey" stroke-width="2" points="1333.6,-183.9 1342.32,-177.87 1331.75,-177.15 1333.6,-183.9"/>
</g>
<!-- 27&#45;&gt;49 -->
<g id="edge90" class="edge">
<title>27&#45;&gt;49</title>
<path fill="none" stroke="grey" stroke-width="2" d="M1174.03,-225.03C1205.21,-216.58 1252.96,-201.46 1290.5,-180 1312.14,-167.63 1311.56,-155.83 1333.5,-144 1378.3,-119.83 1435.59,-105.21 1472.43,-97.61"/>
<polygon fill="grey" stroke="grey" stroke-width="2" points="1473.12,-101.04 1482.24,-95.66 1471.75,-94.18 1473.12,-101.04"/>
</g>
<!-- 28&#45;&gt;0 -->
<g id="edge16" class="edge">
<title>28&#45;&gt;0</title>
<path fill="none" stroke="grey" stroke-width="2" d="M1869.03,-232.65C1988.86,-231.01 2400.73,-222.33 2439.5,-180 2450.31,-168.2 2445.67,-158.76 2439.5,-144 2421.92,-101.96 2407.95,-90.94 2366.5,-72 2251.91,-19.65 1855.16,-17.85 1730.97,-18.61"/>
<polygon fill="grey" stroke="grey" stroke-width="2" points="1730.79,-15.12 1720.82,-18.69 1730.84,-22.11 1730.79,-15.12"/>
</g>
<!-- 34 -->
<g id="node35" class="node">
<title>34</title>
<path fill="none" stroke="#d85656" stroke-width="2" stroke-dasharray="5,2" d="M1852,-180C1852,-180 1821,-180 1821,-180 1815,-180 1809,-174 1809,-168 1809,-168 1809,-156 1809,-156 1809,-150 1815,-144 1821,-144 1821,-144 1852,-144 1852,-144 1858,-144 1864,-150 1864,-156 1864,-156 1864,-168 1864,-168 1864,-174 1858,-180 1852,-180"/>
<text text-anchor="middle" x="1836.5" y="-159.5" font-family="sans" font-size="10.00">bam_qc</text>
</g>
<!-- 28&#45;&gt;34 -->
<g id="edge67" class="edge">
<title>28&#45;&gt;34</title>
<path fill="none" stroke="grey" stroke-width="2" d="M1836.5,-215.7C1836.5,-207.98 1836.5,-198.71 1836.5,-190.11"/>
<polygon fill="grey" stroke="grey" stroke-width="2" points="1840,-190.1 1836.5,-180.1 1833,-190.1 1840,-190.1"/>
</g>
<!-- 40 -->
<g id="node41" class="node">
<title>40</title>
<path fill="none" stroke="#56d882" stroke-width="2" stroke-dasharray="5,2" d="M2418,-180C2418,-180 2353,-180 2353,-180 2347,-180 2341,-174 2341,-168 2341,-168 2341,-156 2341,-156 2341,-150 2347,-144 2353,-144 2353,-144 2418,-144 2418,-144 2424,-144 2430,-150 2430,-156 2430,-156 2430,-168 2430,-168 2430,-174 2424,-180 2418,-180"/>
<text text-anchor="middle" x="2385.5" y="-159.5" font-family="sans" font-size="10.00">cufflinks_fpkm</text>
</g>
<!-- 28&#45;&gt;40 -->
<g id="edge73" class="edge">
<title>28&#45;&gt;40</title>
<path fill="none" stroke="grey" stroke-width="2" d="M1869.06,-231.82C1947.44,-228.48 2152.7,-216.85 2331.04,-180.08"/>
<polygon fill="grey" stroke="grey" stroke-width="2" points="2331.78,-183.5 2340.85,-178.03 2330.35,-176.65 2331.78,-183.5"/>
</g>
<!-- 46 -->
<g id="node47" class="node">
<title>46</title>
<path fill="none" stroke="#56d8a9" stroke-width="2" stroke-dasharray="5,2" d="M1778.5,-180C1778.5,-180 1694.5,-180 1694.5,-180 1688.5,-180 1682.5,-174 1682.5,-168 1682.5,-168 1682.5,-156 1682.5,-156 1682.5,-150 1688.5,-144 1694.5,-144 1694.5,-144 1778.5,-144 1778.5,-144 1784.5,-144 1790.5,-150 1790.5,-156 1790.5,-156 1790.5,-168 1790.5,-168 1790.5,-174 1784.5,-180 1778.5,-180"/>
<text text-anchor="middle" x="1736.5" y="-159.5" font-family="sans" font-size="10.00">htseq_count_reads</text>
</g>
<!-- 28&#45;&gt;46 -->
<g id="edge79" class="edge">
<title>28&#45;&gt;46</title>
<path fill="none" stroke="grey" stroke-width="2" d="M1812.04,-215.88C1799.2,-206.89 1783.3,-195.76 1769.41,-186.03"/>
<polygon fill="grey" stroke="grey" stroke-width="2" points="1771.26,-183.06 1761.06,-180.19 1767.24,-188.79 1771.26,-183.06"/>
</g>
<!-- 28&#45;&gt;49 -->
<g id="edge91" class="edge">
<title>28&#45;&gt;49</title>
<path fill="none" stroke="grey" stroke-width="2" d="M1803.95,-231.11C1756.91,-227.21 1668.36,-215.39 1602.5,-180 1586.76,-171.54 1554.39,-138.92 1532.31,-115.62"/>
<polygon fill="grey" stroke="grey" stroke-width="2" points="1534.66,-113.01 1525.26,-108.13 1529.57,-117.81 1534.66,-113.01"/>
</g>
<!-- 29&#45;&gt;0 -->
<g id="edge17" class="edge">
<title>29&#45;&gt;0</title>
<path fill="none" stroke="grey" stroke-width="2" d="M2547.03,-231.89C2614.3,-228.85 2765.09,-217.86 2796.5,-180 2834.84,-133.78 2746.08,-76.79 2736.5,-72 2645.11,-26.33 1906.12,-20 1730.74,-19.13"/>
<polygon fill="grey" stroke="grey" stroke-width="2" points="1730.72,-15.63 1720.7,-19.09 1730.69,-22.63 1730.72,-15.63"/>
</g>
<!-- 35 -->
<g id="node36" class="node">
<title>35</title>
<path fill="none" stroke="#d85656" stroke-width="2" stroke-dasharray="5,2" d="M2530,-180C2530,-180 2499,-180 2499,-180 2493,-180 2487,-174 2487,-168 2487,-168 2487,-156 2487,-156 2487,-150 2493,-144 2499,-144 2499,-144 2530,-144 2530,-144 2536,-144 2542,-150 2542,-156 2542,-156 2542,-168 2542,-168 2542,-174 2536,-180 2530,-180"/>
<text text-anchor="middle" x="2514.5" y="-159.5" font-family="sans" font-size="10.00">bam_qc</text>
</g>
<!-- 29&#45;&gt;35 -->
<g id="edge68" class="edge">
<title>29&#45;&gt;35</title>
<path fill="none" stroke="grey" stroke-width="2" d="M2514.5,-215.7C2514.5,-207.98 2514.5,-198.71 2514.5,-190.11"/>
<polygon fill="grey" stroke="grey" stroke-width="2" points="2518,-190.1 2514.5,-180.1 2511,-190.1 2518,-190.1"/>
</g>
<!-- 41 -->
<g id="node42" class="node">
<title>41</title>
<path fill="none" stroke="#56d882" stroke-width="2" stroke-dasharray="5,2" d="M2637,-180C2637,-180 2572,-180 2572,-180 2566,-180 2560,-174 2560,-168 2560,-168 2560,-156 2560,-156 2560,-150 2566,-144 2572,-144 2572,-144 2637,-144 2637,-144 2643,-144 2649,-150 2649,-156 2649,-156 2649,-168 2649,-168 2649,-174 2643,-180 2637,-180"/>
<text text-anchor="middle" x="2604.5" y="-159.5" font-family="sans" font-size="10.00">cufflinks_fpkm</text>
</g>
<!-- 29&#45;&gt;41 -->
<g id="edge74" class="edge">
<title>29&#45;&gt;41</title>
<path fill="none" stroke="grey" stroke-width="2" d="M2536.75,-215.7C2548.08,-206.88 2562.03,-196.03 2574.32,-186.47"/>
<polygon fill="grey" stroke="grey" stroke-width="2" points="2576.76,-189.01 2582.51,-180.1 2572.47,-183.48 2576.76,-189.01"/>
</g>
<!-- 47 -->
<g id="node48" class="node">
<title>47</title>
<path fill="none" stroke="#56d8a9" stroke-width="2" stroke-dasharray="5,2" d="M2077.5,-180C2077.5,-180 1993.5,-180 1993.5,-180 1987.5,-180 1981.5,-174 1981.5,-168 1981.5,-168 1981.5,-156 1981.5,-156 1981.5,-150 1987.5,-144 1993.5,-144 1993.5,-144 2077.5,-144 2077.5,-144 2083.5,-144 2089.5,-150 2089.5,-156 2089.5,-156 2089.5,-168 2089.5,-168 2089.5,-174 2083.5,-180 2077.5,-180"/>
<text text-anchor="middle" x="2035.5" y="-159.5" font-family="sans" font-size="10.00">htseq_count_reads</text>
</g>
<!-- 29&#45;&gt;47 -->
<g id="edge80" class="edge">
<title>29&#45;&gt;47</title>
<path fill="none" stroke="grey" stroke-width="2" d="M2481.89,-230.38C2413.02,-224.51 2247.57,-208.69 2099.84,-180.12"/>
<polygon fill="grey" stroke="grey" stroke-width="2" points="2100.17,-176.61 2089.69,-178.13 2098.83,-183.48 2100.17,-176.61"/>
</g>
<!-- 29&#45;&gt;49 -->
<g id="edge92" class="edge">
<title>29&#45;&gt;49</title>
<path fill="none" stroke="grey" stroke-width="2" d="M2481.67,-232.18C2332.24,-228.31 1720.12,-210.67 1640.5,-180 1616.6,-170.79 1616.44,-158.75 1595.5,-144 1579.56,-132.77 1561.24,-121.3 1545.62,-111.92"/>
<polygon fill="grey" stroke="grey" stroke-width="2" points="1547.16,-108.76 1536.77,-106.65 1543.58,-114.77 1547.16,-108.76"/>
</g>
<!-- 30&#45;&gt;0 -->
<g id="edge18" class="edge">
<title>30&#45;&gt;0</title>
<path fill="none" stroke="grey" stroke-width="2" d="M2904.17,-218.15C2905.96,-217.41 2907.75,-216.69 2909.5,-216 2955.81,-197.82 2986.52,-220.44 3015.5,-180 3072.22,-100.84 2943.26,-86.16 2896.5,-72 2782.73,-37.54 1921.49,-22.48 1730.8,-19.54"/>
<polygon fill="grey" stroke="grey" stroke-width="2" points="1730.77,-16.04 1720.72,-19.39 1730.66,-23.04 1730.77,-16.04"/>
</g>
<!-- 36 -->
<g id="node37" class="node">
<title>36</title>
<path fill="none" stroke="#d85656" stroke-width="2" stroke-dasharray="5,2" d="M2887,-180C2887,-180 2856,-180 2856,-180 2850,-180 2844,-174 2844,-168 2844,-168 2844,-156 2844,-156 2844,-150 2850,-144 2856,-144 2856,-144 2887,-144 2887,-144 2893,-144 2899,-150 2899,-156 2899,-156 2899,-168 2899,-168 2899,-174 2893,-180 2887,-180"/>
<text text-anchor="middle" x="2871.5" y="-159.5" font-family="sans" font-size="10.00">bam_qc</text>
</g>
<!-- 30&#45;&gt;36 -->
<g id="edge69" class="edge">
<title>30&#45;&gt;36</title>
<path fill="none" stroke="grey" stroke-width="2" d="M2871.5,-215.7C2871.5,-207.98 2871.5,-198.71 2871.5,-190.11"/>
<polygon fill="grey" stroke="grey" stroke-width="2" points="2875,-190.1 2871.5,-180.1 2868,-190.1 2875,-190.1"/>
</g>
<!-- 42 -->
<g id="node43" class="node">
<title>42</title>
<path fill="none" stroke="#56d882" stroke-width="2" stroke-dasharray="5,2" d="M2994,-180C2994,-180 2929,-180 2929,-180 2923,-180 2917,-174 2917,-168 2917,-168 2917,-156 2917,-156 2917,-150 2923,-144 2929,-144 2929,-144 2994,-144 2994,-144 3000,-144 3006,-150 3006,-156 3006,-156 3006,-168 3006,-168 3006,-174 3000,-180 2994,-180"/>
<text text-anchor="middle" x="2961.5" y="-159.5" font-family="sans" font-size="10.00">cufflinks_fpkm</text>
</g>
<!-- 30&#45;&gt;42 -->
<g id="edge75" class="edge">
<title>30&#45;&gt;42</title>
<path fill="none" stroke="grey" stroke-width="2" d="M2893.75,-215.7C2905.08,-206.88 2919.03,-196.03 2931.32,-186.47"/>
<polygon fill="grey" stroke="grey" stroke-width="2" points="2933.76,-189.01 2939.51,-180.1 2929.47,-183.48 2933.76,-189.01"/>
</g>
<!-- 48 -->
<g id="node49" class="node">
<title>48</title>
<path fill="none" stroke="#56d8a9" stroke-width="2" stroke-dasharray="5,2" d="M2203.5,-180C2203.5,-180 2119.5,-180 2119.5,-180 2113.5,-180 2107.5,-174 2107.5,-168 2107.5,-168 2107.5,-156 2107.5,-156 2107.5,-150 2113.5,-144 2119.5,-144 2119.5,-144 2203.5,-144 2203.5,-144 2209.5,-144 2215.5,-150 2215.5,-156 2215.5,-156 2215.5,-168 2215.5,-168 2215.5,-174 2209.5,-180 2203.5,-180"/>
<text text-anchor="middle" x="2161.5" y="-159.5" font-family="sans" font-size="10.00">htseq_count_reads</text>
</g>
<!-- 30&#45;&gt;48 -->
<g id="edge81" class="edge">
<title>30&#45;&gt;48</title>
<path fill="none" stroke="grey" stroke-width="2" d="M2838.68,-231.08C2727.36,-224.46 2363.89,-201.84 2225.76,-179.79"/>
<polygon fill="grey" stroke="grey" stroke-width="2" points="2226.26,-176.32 2215.82,-178.13 2225.11,-183.23 2226.26,-176.32"/>
</g>
<!-- 30&#45;&gt;49 -->
<g id="edge93" class="edge">
<title>30&#45;&gt;49</title>
<path fill="none" stroke="grey" stroke-width="2" d="M2838.86,-231.1C2781.67,-227.79 2659.62,-220.88 2556.5,-216 2458.42,-211.35 1764.88,-215.94 1673.5,-180 1650.62,-171 1652.37,-156.99 1631.5,-144 1597.02,-122.54 1584.71,-124.29 1547.5,-108 1547.07,-107.81 1546.64,-107.62 1546.2,-107.43"/>
<polygon fill="grey" stroke="grey" stroke-width="2" points="1547.44,-104.15 1536.88,-103.31 1544.61,-110.55 1547.44,-104.15"/>
</g>
<!-- 31&#45;&gt;0 -->
<g id="edge19" class="edge">
<title>31&#45;&gt;0</title>
<path fill="none" stroke="grey" stroke-width="2" d="M257.18,-143.77C261.45,-122.81 271.98,-88.2 296.5,-72 354.81,-33.47 1439.37,-21.37 1656.02,-19.33"/>
<polygon fill="grey" stroke="grey" stroke-width="2" points="1656.28,-22.83 1666.25,-19.23 1656.21,-15.83 1656.28,-22.83"/>
</g>
<!-- 31&#45;&gt;49 -->
<g id="edge94" class="edge">
<title>31&#45;&gt;49</title>
<path fill="none" stroke="grey" stroke-width="2" d="M282.07,-153.51C296.15,-150.01 313.62,-146.14 329.5,-144 558.3,-113.18 1297.45,-95.57 1472.21,-91.78"/>
<polygon fill="grey" stroke="grey" stroke-width="2" points="1472.52,-95.27 1482.44,-91.56 1472.37,-88.28 1472.52,-95.27"/>
</g>
<!-- 32&#45;&gt;0 -->
<g id="edge20" class="edge">
<title>32&#45;&gt;0</title>
<path fill="none" stroke="grey" stroke-width="2" d="M632.62,-143.82C660.14,-122.56 710.66,-87.28 760.5,-72 932.04,-19.39 1503.68,-18.13 1655.96,-18.76"/>
<polygon fill="grey" stroke="grey" stroke-width="2" points="1656.17,-22.26 1666.19,-18.8 1656.2,-15.26 1656.17,-22.26"/>
</g>
<!-- 32&#45;&gt;49 -->
<g id="edge95" class="edge">
<title>32&#45;&gt;49</title>
<path fill="none" stroke="grey" stroke-width="2" d="M639.11,-148.37C643.83,-146.63 648.74,-145.08 653.5,-144 813.04,-107.78 1329.43,-94.69 1472.47,-91.71"/>
<polygon fill="grey" stroke="grey" stroke-width="2" points="1472.57,-95.21 1482.49,-91.5 1472.42,-88.21 1472.57,-95.21"/>
</g>
<!-- 33&#45;&gt;0 -->
<g id="edge21" class="edge">
<title>33&#45;&gt;0</title>
<path fill="none" stroke="grey" stroke-width="2" d="M996.31,-147.66C1039.54,-127.58 1125.95,-90.02 1203.5,-72 1369.38,-33.46 1573.5,-22.81 1656.14,-19.98"/>
<polygon fill="grey" stroke="grey" stroke-width="2" points="1656.41,-23.47 1666.29,-19.65 1656.19,-16.48 1656.41,-23.47"/>
</g>
<!-- 33&#45;&gt;49 -->
<g id="edge96" class="edge">
<title>33&#45;&gt;49</title>
<path fill="none" stroke="grey" stroke-width="2" d="M996.01,-147.19C999.16,-145.96 1002.36,-144.86 1005.5,-144 1175.36,-97.41 1387.76,-91.27 1472.3,-90.81"/>
<polygon fill="grey" stroke="grey" stroke-width="2" points="1472.44,-94.31 1482.43,-90.78 1472.42,-87.31 1472.44,-94.31"/>
</g>
<!-- 34&#45;&gt;0 -->
<g id="edge22" class="edge">
<title>34&#45;&gt;0</title>
<path fill="none" stroke="grey" stroke-width="2" d="M1819.25,-143.87C1794.02,-118.82 1746.93,-72.05 1718.08,-43.41"/>
<polygon fill="grey" stroke="grey" stroke-width="2" points="1720.37,-40.75 1710.81,-36.19 1715.44,-45.72 1720.37,-40.75"/>
</g>
<!-- 34&#45;&gt;49 -->
<g id="edge97" class="edge">
<title>34&#45;&gt;49</title>
<path fill="none" stroke="grey" stroke-width="2" d="M1808.95,-147.3C1805.81,-146.06 1802.62,-144.92 1799.5,-144 1690.97,-112.05 1656.19,-139.41 1547.5,-108 1547.05,-107.87 1546.6,-107.73 1546.14,-107.6"/>
<polygon fill="grey" stroke="grey" stroke-width="2" points="1547.15,-104.24 1536.56,-104.19 1544.81,-110.84 1547.15,-104.24"/>
</g>
<!-- 35&#45;&gt;0 -->
<g id="edge23" class="edge">
<title>35&#45;&gt;0</title>
<path fill="none" stroke="grey" stroke-width="2" d="M2511.74,-143.89C2507.39,-123.05 2496.77,-88.57 2472.5,-72 2410.85,-29.92 1878.72,-21.02 1731.25,-19.35"/>
<polygon fill="grey" stroke="grey" stroke-width="2" points="1730.95,-15.85 1720.91,-19.24 1730.87,-22.85 1730.95,-15.85"/>
</g>
<!-- 35&#45;&gt;49 -->
<g id="edge98" class="edge">
<title>35&#45;&gt;49</title>
<path fill="none" stroke="grey" stroke-width="2" d="M2486.94,-153.48C2472.85,-149.97 2455.38,-146.1 2439.5,-144 2242.83,-117.96 1740.64,-153.32 1547.5,-108 1547.17,-107.92 1546.84,-107.84 1546.51,-107.76"/>
<polygon fill="grey" stroke="grey" stroke-width="2" points="1547.47,-104.39 1536.88,-104.7 1545.36,-111.07 1547.47,-104.39"/>
</g>
<!-- 36&#45;&gt;0 -->
<g id="edge24" class="edge">
<title>36&#45;&gt;0</title>
<path fill="none" stroke="grey" stroke-width="2" d="M2868.8,-143.81C2864.5,-122.88 2853.95,-88.31 2829.5,-72 2782.78,-40.83 1921.41,-23.2 1730.68,-19.66"/>
<polygon fill="grey" stroke="grey" stroke-width="2" points="1730.66,-16.16 1720.6,-19.48 1730.53,-23.16 1730.66,-16.16"/>
</g>
<!-- 36&#45;&gt;49 -->
<g id="edge99" class="edge">
<title>36&#45;&gt;49</title>
<path fill="none" stroke="grey" stroke-width="2" d="M2843.95,-153.41C2829.87,-149.87 2812.39,-146.01 2796.5,-144 2521.03,-109.15 1818.19,-169.88 1547.5,-108 1547.17,-107.92 1546.84,-107.85 1546.51,-107.76"/>
<polygon fill="grey" stroke="grey" stroke-width="2" points="1547.46,-104.4 1536.87,-104.74 1545.37,-111.08 1547.46,-104.4"/>
</g>
<!-- 37&#45;&gt;0 -->
<g id="edge25" class="edge">
<title>37&#45;&gt;0</title>
<path fill="none" stroke="grey" stroke-width="2" d="M402.8,-143.73C428.01,-122.37 474.52,-87 521.5,-72 631.66,-36.84 1468.63,-22.35 1656.25,-19.53"/>
<polygon fill="grey" stroke="grey" stroke-width="2" points="1656.49,-23.03 1666.44,-19.38 1656.39,-16.03 1656.49,-23.03"/>
</g>
<!-- 50 -->
<g id="node51" class="node">
<title>50</title>
<path fill="none" stroke="#d6d856" stroke-width="2" stroke-dasharray="5,2" d="M2317.5,-108C2317.5,-108 2239.5,-108 2239.5,-108 2233.5,-108 2227.5,-102 2227.5,-96 2227.5,-96 2227.5,-84 2227.5,-84 2227.5,-78 2233.5,-72 2239.5,-72 2239.5,-72 2317.5,-72 2317.5,-72 2323.5,-72 2329.5,-78 2329.5,-84 2329.5,-84 2329.5,-96 2329.5,-96 2329.5,-102 2323.5,-108 2317.5,-108"/>
<text text-anchor="middle" x="2278.5" y="-87.5" font-family="sans" font-size="10.00">summarize_fpkm</text>
</g>
<!-- 37&#45;&gt;50 -->
<g id="edge106" class="edge">
<title>37&#45;&gt;50</title>
<path fill="none" stroke="grey" stroke-width="2" d="M428.1,-145.72C430.92,-145.06 433.74,-144.47 436.5,-144 442.11,-143.04 1897.69,-101.78 2217.04,-92.74"/>
<polygon fill="grey" stroke="grey" stroke-width="2" points="2217.58,-96.23 2227.48,-92.44 2217.39,-89.23 2217.58,-96.23"/>
</g>
<!-- 38&#45;&gt;0 -->
<g id="edge26" class="edge">
<title>38&#45;&gt;0</title>
<path fill="none" stroke="grey" stroke-width="2" d="M746.46,-143.68C754.73,-122.62 771.87,-87.91 799.5,-72 874.5,-28.83 1495.2,-20.66 1655.72,-19.27"/>
<polygon fill="grey" stroke="grey" stroke-width="2" points="1656.08,-22.76 1666.05,-19.18 1656.02,-15.76 1656.08,-22.76"/>
</g>
<!-- 38&#45;&gt;50 -->
<g id="edge107" class="edge">
<title>38&#45;&gt;50</title>
<path fill="none" stroke="grey" stroke-width="2" d="M785.25,-151.47C800.49,-148.59 817.67,-145.73 833.5,-144 972.19,-128.86 1959.56,-100.05 2217.16,-92.73"/>
<polygon fill="grey" stroke="grey" stroke-width="2" points="2217.55,-96.22 2227.45,-92.44 2217.35,-89.22 2217.55,-96.22"/>
</g>
<!-- 39&#45;&gt;0 -->
<g id="edge27" class="edge">
<title>39&#45;&gt;0</title>
<path fill="none" stroke="grey" stroke-width="2" d="M2233.77,-146.72C2230.64,-145.78 2227.52,-144.86 2224.5,-144 2100.95,-108.7 2069.61,-101.28 1944.5,-72 1868.79,-54.28 1779.61,-36.08 1730.54,-26.3"/>
<polygon fill="grey" stroke="grey" stroke-width="2" points="1731.19,-22.86 1720.7,-24.34 1729.83,-29.72 1731.19,-22.86"/>
</g>
<!-- 39&#45;&gt;50 -->
<g id="edge108" class="edge">
<title>39&#45;&gt;50</title>
<path fill="none" stroke="grey" stroke-width="2" d="M2278.5,-143.7C2278.5,-135.98 2278.5,-126.71 2278.5,-118.11"/>
<polygon fill="grey" stroke="grey" stroke-width="2" points="2282,-118.1 2278.5,-108.1 2275,-118.1 2282,-118.1"/>
</g>
<!-- 40&#45;&gt;0 -->
<g id="edge28" class="edge">
<title>40&#45;&gt;0</title>
<path fill="none" stroke="grey" stroke-width="2" d="M2381.74,-143.89C2376.18,-123.04 2363.58,-88.56 2338.5,-72 2287.71,-38.47 1860.9,-23.73 1730.92,-19.99"/>
<polygon fill="grey" stroke="grey" stroke-width="2" points="1730.77,-16.49 1720.67,-19.71 1730.57,-23.49 1730.77,-16.49"/>
</g>
<!-- 40&#45;&gt;50 -->
<g id="edge109" class="edge">
<title>40&#45;&gt;50</title>
<path fill="none" stroke="grey" stroke-width="2" d="M2359.32,-143.88C2345.46,-134.81 2328.26,-123.55 2313.29,-113.76"/>
<polygon fill="grey" stroke="grey" stroke-width="2" points="2315.06,-110.74 2304.78,-108.19 2311.23,-116.59 2315.06,-110.74"/>
</g>
<!-- 41&#45;&gt;0 -->
<g id="edge29" class="edge">
<title>41&#45;&gt;0</title>
<path fill="none" stroke="grey" stroke-width="2" d="M2590.63,-143.89C2572.3,-122.7 2537.82,-87.5 2499.5,-72 2427.69,-42.95 1879.45,-24.57 1730.66,-20.08"/>
<polygon fill="grey" stroke="grey" stroke-width="2" points="1730.75,-16.58 1720.65,-19.78 1730.54,-23.57 1730.75,-16.58"/>
</g>
<!-- 41&#45;&gt;50 -->
<g id="edge110" class="edge">
<title>41&#45;&gt;50</title>
<path fill="none" stroke="grey" stroke-width="2" d="M2559.79,-146.25C2556.99,-145.45 2554.21,-144.7 2551.5,-144 2479.52,-125.54 2395.4,-110.12 2339.77,-100.75"/>
<polygon fill="grey" stroke="grey" stroke-width="2" points="2340.16,-97.27 2329.72,-99.08 2339.01,-104.18 2340.16,-97.27"/>
</g>
<!-- 42&#45;&gt;0 -->
<g id="edge30" class="edge">
<title>42&#45;&gt;0</title>
<path fill="none" stroke="grey" stroke-width="2" d="M2947.68,-143.77C2929.4,-122.45 2894.98,-87.12 2856.5,-72 2749.75,-30.07 1918.11,-20.83 1730.86,-19.27"/>
<polygon fill="grey" stroke="grey" stroke-width="2" points="1730.72,-15.77 1720.69,-19.19 1730.66,-22.77 1730.72,-15.77"/>
</g>
<!-- 42&#45;&gt;50 -->
<g id="edge111" class="edge">
<title>42&#45;&gt;50</title>
<path fill="none" stroke="grey" stroke-width="2" d="M2916.87,-145.9C2914.05,-145.19 2911.25,-144.55 2908.5,-144 2800.84,-122.5 2476.76,-102.24 2340.22,-94.41"/>
<polygon fill="grey" stroke="grey" stroke-width="2" points="2340.12,-90.9 2329.94,-93.82 2339.72,-97.89 2340.12,-90.9"/>
</g>
<!-- 43&#45;&gt;0 -->
<g id="edge31" class="edge">
<title>43&#45;&gt;0</title>
<path fill="none" stroke="grey" stroke-width="2" d="M1108.6,-143.96C1157.53,-123.84 1243.17,-90.74 1319.5,-72 1440.71,-42.24 1588.4,-27.44 1656.21,-21.8"/>
<polygon fill="grey" stroke="grey" stroke-width="2" points="1656.71,-25.27 1666.39,-20.97 1656.14,-18.29 1656.71,-25.27"/>
</g>
<!-- 43&#45;&gt;49 -->
<g id="edge100" class="edge">
<title>43&#45;&gt;49</title>
<path fill="none" stroke="grey" stroke-width="2" d="M1122.69,-145.92C1125.66,-145.23 1128.61,-144.59 1131.5,-144 1255.07,-118.77 1403.82,-101.76 1472.02,-94.69"/>
<polygon fill="grey" stroke="grey" stroke-width="2" points="1472.67,-98.15 1482.26,-93.64 1471.96,-91.18 1472.67,-98.15"/>
</g>
<!-- 51 -->
<g id="node52" class="node">
<title>51</title>
<path fill="none" stroke="#80d856" stroke-width="2" stroke-dasharray="5,2" d="M1653,-108C1653,-108 1568,-108 1568,-108 1562,-108 1556,-102 1556,-96 1556,-96 1556,-84 1556,-84 1556,-78 1562,-72 1568,-72 1568,-72 1653,-72 1653,-72 1659,-72 1665,-78 1665,-84 1665,-84 1665,-96 1665,-96 1665,-102 1659,-108 1653,-108"/>
<text text-anchor="middle" x="1610.5" y="-87.5" font-family="sans" font-size="10.00">summarize_counts</text>
</g>
<!-- 43&#45;&gt;51 -->
<g id="edge112" class="edge">
<title>43&#45;&gt;51</title>
<path fill="none" stroke="grey" stroke-width="2" d="M1122.66,-145.73C1125.64,-145.1 1128.6,-144.51 1131.5,-144 1313.37,-111.82 1363.51,-139.48 1545.5,-108 1545.6,-107.98 1545.71,-107.96 1545.81,-107.95"/>
<polygon fill="grey" stroke="grey" stroke-width="2" points="1546.52,-111.37 1555.68,-106.04 1545.19,-104.5 1546.52,-111.37"/>
</g>
<!-- 44&#45;&gt;0 -->
<g id="edge32" class="edge">
<title>44&#45;&gt;0</title>
<path fill="none" stroke="grey" stroke-width="2" d="M1233.57,-143.84C1279.48,-124.22 1358.33,-92.21 1428.5,-72 1508.43,-48.98 1604.74,-32.43 1656.42,-24.42"/>
<polygon fill="grey" stroke="grey" stroke-width="2" points="1657.08,-27.86 1666.44,-22.89 1656.03,-20.94 1657.08,-27.86"/>
</g>
<!-- 44&#45;&gt;49 -->
<g id="edge101" class="edge">
<title>44&#45;&gt;49</title>
<path fill="none" stroke="grey" stroke-width="2" d="M1248.65,-147.29C1253.33,-146.16 1258,-145.05 1262.5,-144 1336.73,-126.76 1423.98,-108.51 1472.38,-98.56"/>
<polygon fill="grey" stroke="grey" stroke-width="2" points="1473.29,-101.94 1482.39,-96.51 1471.89,-95.09 1473.29,-101.94"/>
</g>
<!-- 44&#45;&gt;51 -->
<g id="edge113" class="edge">
<title>44&#45;&gt;51</title>
<path fill="none" stroke="grey" stroke-width="2" d="M1248.63,-154.63C1317.85,-146.08 1441.22,-129.45 1545.5,-108 1545.71,-107.96 1545.93,-107.91 1546.14,-107.87"/>
<polygon fill="grey" stroke="grey" stroke-width="2" points="1546.97,-111.27 1555.98,-105.71 1545.46,-104.43 1546.97,-111.27"/>
</g>
<!-- 45&#45;&gt;0 -->
<g id="edge33" class="edge">
<title>45&#45;&gt;0</title>
<path fill="none" stroke="grey" stroke-width="2" d="M1406.69,-143.73C1419.61,-123.38 1443.83,-90.07 1473.5,-72 1531.09,-36.93 1610.35,-25.06 1656.33,-21.05"/>
<polygon fill="grey" stroke="grey" stroke-width="2" points="1656.75,-24.53 1666.44,-20.25 1656.2,-17.55 1656.75,-24.53"/>
</g>
<!-- 45&#45;&gt;49 -->
<g id="edge102" class="edge">
<title>45&#45;&gt;49</title>
<path fill="none" stroke="grey" stroke-width="2" d="M1424.14,-143.88C1439.03,-134.66 1457.57,-123.17 1473.56,-113.26"/>
<polygon fill="grey" stroke="grey" stroke-width="2" points="1475.48,-116.19 1482.14,-107.95 1471.8,-110.24 1475.48,-116.19"/>
</g>
<!-- 45&#45;&gt;51 -->
<g id="edge114" class="edge">
<title>45&#45;&gt;51</title>
<path fill="none" stroke="grey" stroke-width="2" d="M1448.58,-143.97C1478.74,-134.1 1516.89,-121.62 1548.58,-111.25"/>
<polygon fill="grey" stroke="grey" stroke-width="2" points="1549.77,-114.55 1558.19,-108.11 1547.6,-107.89 1549.77,-114.55"/>
</g>
<!-- 46&#45;&gt;0 -->
<g id="edge34" class="edge">
<title>46&#45;&gt;0</title>
<path fill="none" stroke="grey" stroke-width="2" d="M1731.31,-143.87C1723.95,-119.56 1710.4,-74.82 1701.68,-46.01"/>
<polygon fill="grey" stroke="grey" stroke-width="2" points="1704.95,-44.75 1698.71,-36.19 1698.25,-46.77 1704.95,-44.75"/>
</g>
<!-- 46&#45;&gt;49 -->
<g id="edge103" class="edge">
<title>46&#45;&gt;49</title>
<path fill="none" stroke="grey" stroke-width="2" d="M1682.15,-146.71C1635.56,-134.29 1572.18,-116.92 1547.5,-108 1547.06,-107.84 1546.61,-107.68 1546.17,-107.51"/>
<polygon fill="grey" stroke="grey" stroke-width="2" points="1547.29,-104.19 1536.7,-103.75 1544.7,-110.69 1547.29,-104.19"/>
</g>
<!-- 46&#45;&gt;51 -->
<g id="edge115" class="edge">
<title>46&#45;&gt;51</title>
<path fill="none" stroke="grey" stroke-width="2" d="M1705.68,-143.88C1689.05,-134.64 1668.34,-123.13 1650.48,-113.21"/>
<polygon fill="grey" stroke="grey" stroke-width="2" points="1651.88,-109.99 1641.44,-108.19 1648.48,-116.11 1651.88,-109.99"/>
</g>
<!-- 47&#45;&gt;0 -->
<g id="edge35" class="edge">
<title>47&#45;&gt;0</title>
<path fill="none" stroke="grey" stroke-width="2" d="M1994.48,-143.92C1951.41,-125.99 1881.71,-96.98 1821.5,-72 1790.77,-59.25 1755.88,-44.8 1730.29,-34.22"/>
<polygon fill="grey" stroke="grey" stroke-width="2" points="1731.55,-30.95 1720.97,-30.36 1728.87,-37.42 1731.55,-30.95"/>
</g>
<!-- 47&#45;&gt;49 -->
<g id="edge104" class="edge">
<title>47&#45;&gt;49</title>
<path fill="none" stroke="grey" stroke-width="2" d="M1981.34,-145.73C1978.36,-145.09 1975.4,-144.51 1972.5,-144 1785.8,-111.18 1731.05,-155.37 1547.5,-108 1547.05,-107.88 1546.59,-107.76 1546.13,-107.63"/>
<polygon fill="grey" stroke="grey" stroke-width="2" points="1547.1,-104.26 1536.5,-104.39 1544.86,-110.9 1547.1,-104.26"/>
</g>
<!-- 47&#45;&gt;51 -->
<g id="edge116" class="edge">
<title>47&#45;&gt;51</title>
<path fill="none" stroke="grey" stroke-width="2" d="M1981.3,-145.94C1978.33,-145.25 1975.38,-144.6 1972.5,-144 1869.5,-122.64 1748.27,-106.74 1675.5,-98.17"/>
<polygon fill="grey" stroke="grey" stroke-width="2" points="1675.47,-94.64 1665.13,-96.96 1674.65,-101.59 1675.47,-94.64"/>
</g>
<!-- 48&#45;&gt;0 -->
<g id="edge36" class="edge">
<title>48&#45;&gt;0</title>
<path fill="none" stroke="grey" stroke-width="2" d="M2108.02,-143.94C2050.83,-125.77 1957.41,-96.35 1876.5,-72 1825.98,-56.8 1767.37,-39.96 1730.37,-29.43"/>
<polygon fill="grey" stroke="grey" stroke-width="2" points="1731.1,-26 1720.53,-26.64 1729.19,-32.74 1731.1,-26"/>
</g>
<!-- 48&#45;&gt;49 -->
<g id="edge105" class="edge">
<title>48&#45;&gt;49</title>
<path fill="none" stroke="grey" stroke-width="2" d="M2107.35,-145.66C2104.37,-145.04 2101.41,-144.48 2098.5,-144 1856.4,-103.84 1785.7,-167.04 1547.5,-108 1547.17,-107.92 1546.84,-107.83 1546.51,-107.75"/>
<polygon fill="grey" stroke="grey" stroke-width="2" points="1547.5,-104.39 1536.9,-104.62 1545.33,-111.04 1547.5,-104.39"/>
</g>
<!-- 48&#45;&gt;51 -->
<g id="edge117" class="edge">
<title>48&#45;&gt;51</title>
<path fill="none" stroke="grey" stroke-width="2" d="M2107.33,-145.81C2104.35,-145.15 2101.39,-144.54 2098.5,-144 1948.35,-115.77 1769.17,-101.08 1675.26,-94.82"/>
<polygon fill="grey" stroke="grey" stroke-width="2" points="1675.27,-91.31 1665.06,-94.15 1674.81,-98.3 1675.27,-91.31"/>
</g>
<!-- 49&#45;&gt;0 -->
<g id="edge37" class="edge">
<title>49&#45;&gt;0</title>
<path fill="none" stroke="grey" stroke-width="2" d="M1536.8,-76.5C1540.38,-74.95 1544.02,-73.41 1547.5,-72 1584.33,-57.1 1627.13,-41.79 1656.83,-31.49"/>
<polygon fill="grey" stroke="grey" stroke-width="2" points="1658.06,-34.76 1666.37,-28.19 1655.77,-28.15 1658.06,-34.76"/>
</g>
<!-- 50&#45;&gt;0 -->
<g id="edge38" class="edge">
<title>50&#45;&gt;0</title>
<path fill="none" stroke="grey" stroke-width="2" d="M2227.47,-79.82C2211.5,-77.11 2193.79,-74.26 2177.5,-72 2011.43,-48.95 1812.16,-29.8 1730.82,-22.35"/>
<polygon fill="grey" stroke="grey" stroke-width="2" points="1730.87,-18.84 1720.59,-21.41 1730.23,-25.81 1730.87,-18.84"/>
</g>
<!-- 51&#45;&gt;0 -->
<g id="edge39" class="edge">
<title>51&#45;&gt;0</title>
<path fill="none" stroke="grey" stroke-width="2" d="M1631.02,-71.7C1641.37,-62.97 1654.09,-52.24 1665.34,-42.75"/>
<polygon fill="grey" stroke="grey" stroke-width="2" points="1667.83,-45.23 1673.22,-36.1 1663.32,-39.88 1667.83,-45.23"/>
</g>
</g>
</svg>
